<?xml version="1.0" encoding="UTF-8"?>
<svg width="237px" height="67px" viewBox="0 0 237 67" version="1.1" xmlns="http://www.w3.org/2000/svg" xmlns:xlink="http://www.w3.org/1999/xlink">
    <!-- Generator: Sketch 60 (88103) - https://sketch.com -->
    <title>hormo-logo</title>
    <desc>Created with Sketch.</desc>
    <g id="hormo-logo" stroke="none" stroke-width="1" fill="none" fill-rule="evenodd" transform="translate(0.000000, 1.000000)">
        <g id="Group" transform="translate(0.000000, 0.000000)" fill-rule="nonzero">
            <g id="Logo">
                <path d="M0,0 L11.2046512,0 C17.3080398,-1.12117431e-15 22.255814,4.94777411 22.255814,11.0511628 L22.255814,66 L22.255814,66 L11.0511628,66 C4.94777411,66 2.52380638e-15,61.0522259 0,54.9488372 L0,0 L0,0 Z" id="Rectangle" fill="#0053FB"></path>
                <path d="M0,0 L11.2046512,0 C17.3080398,2.43153937e-15 22.255814,4.94777411 22.255814,11.0511628 L22.255814,44 L22.255814,44 L11.0511628,44 C4.94777411,44 2.52380638e-15,39.0522259 0,32.9488372 L0,0 L0,0 Z" id="Rectangle-Copy-5" fill="#031A63"></path>
                <path d="M33.4604651,22 C39.5638538,22 44.5116279,26.9477741 44.5116279,33.0511628 L44.5116279,66 L33.3069767,66 C27.2035881,66 22.255814,61.0522259 22.255814,54.9488372 L22.255814,44 L11,44 C4.92486775,44 8.52651283e-14,39.0751322 8.52651283e-14,33 C8.52651283e-14,26.9248678 4.92486775,22 11,22 L11,22 L33.4604651,22 Z" id="Combined-Shape" fill="#8EC6FF"></path>
                <path d="M11.127907,22 L11.255814,22 C17.3309462,22 22.255814,26.9248678 22.255814,33 C22.255814,39.0751322 17.3309462,44 11.255814,44 L0,44 L0,44 L0,33.127907 C-7.52640163e-16,26.9821337 4.98213366,22 11.127907,22 Z" id="Rectangle-Copy-3" fill="#1095F7" transform="translate(11.127907, 33.000000) scale(-1, 1) translate(-11.127907, -33.000000) "></path>
                <path d="M11.127907,22 L11.255814,22 C17.3309462,22 22.255814,26.9248678 22.255814,33 C22.255814,39.0751322 17.3309462,44 11.255814,44 L0,44 L0,44 L0,33.127907 C-7.52640163e-16,26.9821337 4.98213366,22 11.127907,22 Z" id="Rectangle-Copy-3" fill="#1095F7" transform="translate(11.127907, 33.000000) scale(-1, 1) translate(-11.127907, -33.000000) "></path>
            </g>
        </g>
        <path d="M74.1824008,55.5241243 L74.1824008,33.5148711 C75.011779,32.7812293 75.865841,32.2012558 76.7445869,31.7749504 C77.6233328,31.3486451 78.5662567,31.1354924 79.5733587,31.1354924 C80.9161614,31.1354924 81.933137,31.5568407 82.6242855,32.3995373 C83.3154339,33.242234 83.6610081,34.4170522 83.6610081,35.9239921 L83.6610081,35.9239921 L83.6610081,55.5241243 L92.843409,55.5241243 L92.843409,35.9239921 C92.843409,34.2385988 92.6163173,32.6771315 92.1621341,31.2395902 C91.7079508,29.8020489 91.0365495,28.5627892 90.14793,27.521811 C89.2593106,26.4808328 88.1682834,25.6678784 86.8748484,25.0829478 C85.5814135,24.4980172 84.0954443,24.2055519 82.4169409,24.2055519 C80.619955,24.2055519 79.0747445,24.4980172 77.7813095,25.0829478 C76.4878746,25.6678784 75.2882384,26.4362194 74.1824008,27.3879709 L74.1824008,27.3879709 L74.1824008,11 L65,11 L65,55.5241243 L74.1824008,55.5241243 Z M112.926208,56 C115.256366,56 117.379179,55.6282221 119.294647,54.8846662 C121.210116,54.1411104 122.854062,53.080304 124.226485,51.7022472 C125.598909,50.3241904 126.665252,48.6487112 127.425515,46.6758096 C128.185779,44.7029081 128.56591,42.4871117 128.56591,40.0284204 C128.56591,37.5895572 128.185779,35.3935889 127.425515,33.4405155 C126.665252,31.4874422 125.598909,29.8268341 124.226485,28.4586913 C122.854062,27.0905486 121.210116,26.0396563 119.294647,25.3060145 C117.379179,24.5723728 115.256366,24.2055519 112.926208,24.2055519 C110.576303,24.2055519 108.43868,24.5723728 106.513338,25.3060145 C104.587996,26.0396563 102.92924,27.0905486 101.537069,28.4586913 C100.144899,29.8268341 99.0686818,31.4874422 98.3084185,33.4405155 C97.5481552,35.3935889 97.1680236,37.5895572 97.1680236,40.0284204 C97.1680236,42.4871117 97.5481552,44.7029081 98.3084185,46.6758096 C99.0686818,48.6487112 100.144899,50.3241904 101.537069,51.7022472 C102.92924,53.080304 104.587996,54.1411104 106.513338,54.8846662 C108.43868,55.6282221 110.576303,56 112.926208,56 Z M112.926208,49.1592862 C110.754027,49.1592862 109.164386,48.4107733 108.157284,46.9137475 C107.150182,45.4167217 106.646631,43.1414408 106.646631,40.0879048 C106.646631,37.0343688 107.150182,34.7640449 108.157284,33.2769332 C109.164386,31.7898215 110.754027,31.0462657 112.926208,31.0462657 C115.039148,31.0462657 116.594232,31.7898215 117.59146,33.2769332 C118.588689,34.7640449 119.087303,37.0343688 119.087303,40.0879048 C119.087303,43.1414408 118.588689,45.4167217 117.59146,46.9137475 C116.594232,48.4107733 115.039148,49.1592862 112.926208,49.1592862 Z M142.369132,55.5241243 L142.369132,36.7865169 C142.922051,35.5175149 143.598389,34.5261071 144.398147,33.8122935 C145.197904,33.0984798 146.269184,32.741573 147.611987,32.741573 C147.848952,32.741573 148.110601,32.7564442 148.396934,32.7861864 C148.683267,32.8159286 148.964663,32.8456709 149.241122,32.8754131 C149.517582,32.9051553 149.784168,32.9299405 150.04088,32.9497687 C150.297592,32.9695968 150.504937,32.9795109 150.662914,32.9795109 C151.057856,32.9795109 151.368872,32.9001983 151.595964,32.741573 C151.823056,32.5829478 151.985969,32.2855254 152.084705,31.849306 L152.084705,31.849306 L152.677118,25.0680767 C151.808245,24.4137475 150.682661,24.0865829 149.300364,24.0865829 C147.700849,24.0865829 146.283994,24.5624587 145.049801,25.5142102 C143.815607,26.4659617 142.72458,27.77462 141.776719,29.4401851 L141.776719,29.4401851 L141.302789,26.8526107 C141.2238,26.4560476 141.130002,26.1189689 141.021393,25.8413748 C140.912784,25.5637806 140.754807,25.3407138 140.547462,25.1721745 C140.340118,25.0036352 140.083406,24.8797092 139.777325,24.8003966 C139.471245,24.7210839 139.091114,24.6814276 138.636931,24.6814276 L138.636931,24.6814276 L133.186731,24.6814276 L133.186731,55.5241243 L142.369132,55.5241243 Z M164.969686,55.5241243 L164.969686,33.2174488 C165.621341,32.5829478 166.317426,32.0773298 167.057942,31.7005948 C167.798458,31.3238599 168.583406,31.1354924 169.412784,31.1354924 C170.755586,31.1354924 171.772562,31.4923992 172.46371,32.2062128 C173.154859,32.9200264 173.500433,34.1592862 173.500433,35.9239921 L173.500433,35.9239921 L173.500433,55.5241243 L182.682834,55.5241243 L182.682834,35.9239921 C182.682834,34.3773959 183.092586,33.1926636 183.912091,32.3697951 C184.731595,31.5469266 185.763381,31.1354924 187.007448,31.1354924 C189.732548,31.1354924 191.095098,32.731659 191.095098,35.9239921 L191.095098,35.9239921 L191.095098,55.5241243 L200.277499,55.5241243 L200.277499,35.9239921 C200.277499,34.0799736 200.040534,32.4292796 199.566603,30.9719101 C199.092673,29.5145406 198.396588,28.285195 197.478347,27.2838731 C196.560107,26.2825512 195.419712,25.5191672 194.057163,24.9937211 C192.694613,24.468275 191.134592,24.2055519 189.3771,24.2055519 C188.42924,24.2055519 187.476442,24.3046927 186.518708,24.5029742 C185.560973,24.7012558 184.652607,25.0085922 183.793608,25.4249835 C182.934609,25.8413748 182.134852,26.386649 181.394336,27.0608063 C180.65382,27.7349636 180.026849,28.547918 179.513425,29.4996695 C178.881517,27.8935889 177.958341,26.6097158 176.743894,25.6480502 C175.529447,24.6863847 173.994111,24.2055519 172.137883,24.2055519 C171.249264,24.2055519 170.434696,24.2997356 169.69418,24.4881031 C168.953664,24.6764706 168.262515,24.9342366 167.620734,25.2614012 C166.978954,25.5885658 166.381604,25.9752148 165.828685,26.4213483 C165.275766,26.8674818 164.742595,27.3582287 164.22917,27.8935889 L164.22917,27.8935889 L163.725619,26.2280238 C163.370171,25.1969597 162.619782,24.6814276 161.47445,24.6814276 L161.47445,24.6814276 L155.787286,24.6814276 L155.787286,55.5241243 L164.969686,55.5241243 Z M220.360298,56 C222.690456,56 224.813269,55.6282221 226.728737,54.8846662 C228.644206,54.1411104 230.288152,53.080304 231.660575,51.7022472 C233.032998,50.3241904 234.099342,48.6487112 234.859605,46.6758096 C235.619868,44.7029081 236,42.4871117 236,40.0284204 C236,37.5895572 235.619868,35.3935889 234.859605,33.4405155 C234.099342,31.4874422 233.032998,29.8268341 231.660575,28.4586913 C230.288152,27.0905486 228.644206,26.0396563 226.728737,25.3060145 C224.813269,24.5723728 222.690456,24.2055519 220.360298,24.2055519 C218.010393,24.2055519 215.87277,24.5723728 213.947428,25.3060145 C212.022086,26.0396563 210.363329,27.0905486 208.971159,28.4586913 C207.578988,29.8268341 206.502772,31.4874422 205.742508,33.4405155 C204.982245,35.3935889 204.602113,37.5895572 204.602113,40.0284204 C204.602113,42.4871117 204.982245,44.7029081 205.742508,46.6758096 C206.502772,48.6487112 207.578988,50.3241904 208.971159,51.7022472 C210.363329,53.080304 212.022086,54.1411104 213.947428,54.8846662 C215.87277,55.6282221 218.010393,56 220.360298,56 Z M220.360298,49.1592862 C218.188117,49.1592862 216.598476,48.4107733 215.591374,46.9137475 C214.584272,45.4167217 214.080721,43.1414408 214.080721,40.0879048 C214.080721,37.0343688 214.584272,34.7640449 215.591374,33.2769332 C216.598476,31.7898215 218.188117,31.0462657 220.360298,31.0462657 C222.473237,31.0462657 224.028321,31.7898215 225.02555,33.2769332 C226.022778,34.7640449 226.521393,37.0343688 226.521393,40.0879048 C226.521393,43.1414408 226.022778,45.4167217 225.02555,46.9137475 C224.028321,48.4107733 222.473237,49.1592862 220.360298,49.1592862 Z" id="hormo" fill="#212121" fill-rule="nonzero"></path>
    </g>
</svg>